<?xml version="1.0" standalone="no"?>
<!DOCTYPE svg PUBLIC "-//W3C//DTD SVG 20010904//EN"
 "http://www.w3.org/TR/2001/REC-SVG-20010904/DTD/svg10.dtd">
<svg version="1.0" xmlns="http://www.w3.org/2000/svg"
 width="1280.000000pt" height="696.000000pt" viewBox="0 0 1280.000000 696.000000"
 preserveAspectRatio="xMidYMid meet">
<metadata>
Created by potrace 1.16, written by Peter Selinger 2001-2019
</metadata>
<g transform="translate(0.000000,696.000000) scale(0.100000,-0.100000)"
fill="#000000" stroke="none">
<path d="M480 3480 l0 -2011 1213 4 1212 3 100 23 c355 80 616 255 914 611
158 189 1086 1390 1085 1404 -1 7 -194 260 -430 562 -236 302 -442 575 -457
606 -63 122 -42 252 57 356 28 30 73 66 101 80 43 23 62 27 140 27 103 0 158
-21 219 -84 19 -20 204 -254 411 -521 207 -267 380 -486 383 -487 4 -1 176
217 382 484 206 267 397 505 423 529 94 85 226 98 346 34 177 -95 237 -299
135 -461 -12 -20 -212 -280 -444 -579 -232 -298 -419 -547 -417 -554 3 -6 82
-109 175 -229 l170 -218 -200 -269 c-110 -149 -204 -267 -209 -264 -5 3 -86
104 -180 224 -95 121 -175 220 -178 220 -3 0 -213 -267 -466 -592 -356 -459
-487 -620 -580 -714 -66 -67 -140 -137 -165 -157 l-45 -37 4078 0 4077 0 0
2010 0 2010 -1267 -2 -1268 -3 -93 -28 c-264 -77 -452 -190 -656 -393 -137
-136 -192 -204 -716 -879 -260 -335 -494 -636 -518 -667 l-45 -58 25 -32 c14
-18 213 -273 441 -566 229 -294 426 -555 438 -580 53 -114 30 -246 -62 -347
-118 -128 -295 -151 -426 -55 -23 17 -203 239 -433 535 -217 278 -397 505
-400 504 -3 0 -167 -210 -365 -466 -198 -256 -379 -487 -403 -514 -124 -139
-329 -140 -466 -4 -102 102 -127 244 -66 369 11 23 213 290 450 595 236 304
430 557 430 561 0 3 -78 107 -174 230 l-173 223 176 237 c218 293 228 306 234
300 2 -3 82 -104 177 -225 95 -121 176 -220 180 -220 5 0 214 266 466 590 368
474 483 615 583 716 70 69 142 138 161 152 l35 27 -4057 0 -4058 0 0 -2010z
m2273 1650 c650 -127 1163 -629 1306 -1275 105 -476 -1 -977 -292 -1371 -74
-101 -268 -289 -377 -366 -175 -124 -400 -221 -624 -270 -87 -19 -131 -22
-321 -22 -243 0 -329 12 -517 75 -475 159 -873 547 -1037 1012 -158 450 -131
910 80 1332 250 503 751 849 1314 909 98 10 363 -3 468 -24z m7789 15 c780
-103 1383 -747 1436 -1534 21 -305 -34 -593 -162 -856 -231 -472 -645 -794
-1166 -907 -91 -19 -134 -22 -320 -22 -186 0 -229 3 -320 22 -665 144 -1156
636 -1302 1305 -20 89 -22 131 -22 337 0 206 2 247 22 333 50 225 133 423 251
599 352 525 965 805 1583 723z"/>
<path d="M2350 4484 c-230 -29 -418 -117 -580 -270 -141 -135 -226 -276 -282
-470 -20 -70 -23 -100 -22 -259 0 -167 2 -187 27 -270 139 -456 546 -748 1006
-722 450 26 821 350 913 796 26 128 21 336 -12 456 -115 422 -484 720 -913
739 -56 2 -118 2 -137 0z"/>
<path d="M10240 4484 c-478 -58 -829 -403 -890 -874 -85 -653 498 -1218 1141
-1105 719 126 1062 947 649 1555 -136 201 -356 350 -595 403 -73 17 -244 28
-305 21z"/>
</g>
</svg>
