<?xml version="1.0" standalone="no"?>
<!DOCTYPE svg PUBLIC "-//W3C//DTD SVG 20010904//EN"
 "http://www.w3.org/TR/2001/REC-SVG-20010904/DTD/svg10.dtd">
<svg version="1.0" xmlns="http://www.w3.org/2000/svg"
 width="700.000000pt" height="648.000000pt" viewBox="0 0 700.000000 648.000000"
 preserveAspectRatio="xMidYMid meet">
<metadata>
Created by potrace 1.16, written by Peter Selinger 2001-2019
</metadata>
<g transform="translate(0.000000,648.000000) scale(0.100000,-0.100000)"
fill="#000000" stroke="none">
<path d="M5130 6465 c-104 -23 -365 -96 -397 -111 -17 -8 -38 -14 -46 -14 -30
0 -74 -59 -111 -147 -57 -137 -58 -140 -37 -418 11 -137 18 -288 18 -335 -2
-62 3 -98 16 -131 18 -43 22 -47 72 -59 59 -14 97 -8 126 19 18 16 99 41 136
41 8 0 38 7 67 15 61 18 115 60 121 94 3 14 8 27 13 30 9 7 62 127 62 141 0
24 -44 19 -112 -13 -92 -44 -170 -67 -222 -67 l-41 1 28 15 c24 13 26 17 13
29 -24 24 -41 117 -27 144 13 23 88 61 123 61 14 0 18 5 14 15 -4 11 2 15 23
15 37 0 43 10 69 106 36 134 29 158 -35 126 -21 -11 -73 -28 -115 -37 -75 -18
-78 -18 -98 0 -23 21 -27 81 -7 109 8 11 34 22 67 27 67 10 165 42 247 79 69
32 91 63 100 145 l4 40 -25 -30 c-27 -32 -38 -32 -26 1 5 11 23 28 42 37 41
20 82 62 73 76 -8 14 -65 12 -135 -4z"/>
<path d="M4300 6249 c-80 -22 -191 -45 -246 -53 -81 -10 -114 -20 -160 -46
-33 -18 -65 -40 -71 -48 -11 -13 -16 -14 -37 -2 -34 18 -90 9 -243 -40 -157
-51 -171 -63 -196 -175 -10 -44 -54 -213 -97 -375 -84 -312 -109 -417 -135
-569 -14 -84 -15 -96 -1 -109 14 -14 18 -13 39 9 12 14 44 31 69 37 63 16 105
54 118 105 11 43 15 54 44 120 19 46 66 69 141 71 l50 1 5 -83 c4 -73 8 -86
29 -103 27 -22 57 -24 91 -4 14 8 34 15 45 15 27 1 71 39 83 70 7 17 3 114
-12 295 -15 195 -23 255 -26 215 -11 -107 -25 -5 -25 175 1 147 3 174 19 197
10 15 15 32 11 37 -3 6 3 27 13 48 22 42 25 37 37 -50 10 -73 31 -88 108 -81
52 5 66 3 78 -12 11 -13 15 -73 21 -278 5 -181 12 -283 23 -331 9 -38 18 -83
22 -100 10 -52 29 -65 92 -64 31 1 61 0 66 -1 24 -6 54 1 75 18 l22 18 -32
387 c-18 214 -29 399 -26 413 5 18 22 31 62 49 66 29 97 53 135 102 24 32 69
145 69 174 0 20 -123 5 -260 -32z m-585 -323 c22 -7 40 -16 40 -21 0 -20 -74
-45 -159 -54 -96 -10 -115 -20 -147 -83 -40 -79 -54 -26 -15 57 53 113 135
143 281 101z m-155 -318 c9 -118 8 -142 -4 -167 -9 -16 -22 -31 -30 -34 -19
-7 -56 37 -56 67 -1 24 73 293 77 280 1 -5 7 -71 13 -146z"/>
<path d="M3070 5929 c-80 -22 -152 -42 -160 -44 -8 -3 -58 -16 -110 -30 -114
-31 -139 -51 -187 -155 -63 -137 -65 -155 -49 -426 8 -131 17 -246 20 -254 3
-8 10 -67 15 -130 5 -63 13 -122 16 -131 14 -38 281 10 385 68 91 52 126 109
85 143 -8 7 -15 23 -15 35 0 13 7 25 15 29 55 21 -71 31 -145 11 -51 -13 -77
-10 -89 13 -5 10 -15 74 -21 142 -6 68 -16 132 -21 141 -5 10 -20 76 -33 147
-13 70 -31 142 -40 160 -9 17 -16 33 -16 37 0 16 214 -7 235 -26 5 -6 2 -9
-10 -9 -10 0 -16 -2 -13 -5 3 -3 56 8 118 24 158 42 222 89 222 165 0 21 7 41
19 52 27 25 25 70 -3 78 -40 10 -70 5 -218 -35z"/>
<path d="M2510 5788 c-189 -40 -446 -122 -484 -154 -17 -15 -47 -67 -74 -127
l-46 -102 0 -125 c0 -69 1 -235 3 -369 2 -271 7 -297 63 -331 39 -23 120 -27
137 -6 12 14 82 37 171 55 80 16 112 40 144 105 15 30 43 78 62 106 19 27 34
56 34 64 0 26 -42 22 -109 -10 -76 -37 -148 -60 -208 -68 -50 -7 -57 6 -13 24
l29 12 -21 17 c-15 13 -22 32 -26 72 -5 68 12 92 88 118 30 11 53 23 50 28 -3
4 8 10 25 13 28 5 31 10 56 100 15 52 28 103 28 113 1 28 -27 31 -77 9 -26
-12 -73 -27 -104 -33 -52 -11 -60 -10 -78 6 -23 21 -27 82 -7 108 6 9 43 23
82 31 95 19 231 73 267 105 18 16 34 45 42 78 15 56 11 70 -12 50 -13 -10 -14
-9 -4 9 6 12 27 31 47 43 41 24 54 49 34 62 -17 11 -39 10 -99 -3z"/>
<path d="M1845 5609 c-27 -5 -150 -35 -273 -67 -186 -49 -224 -56 -234 -45 -6
8 -23 13 -37 11 -21 -2 -33 -17 -64 -76 -22 -41 -54 -115 -72 -165 -18 -51
-41 -113 -51 -138 -22 -59 -14 -83 25 -74 17 3 37 1 48 -5 28 -18 103 4 103
31 0 42 73 159 99 159 21 0 31 -72 31 -219 0 -247 26 -475 64 -551 11 -24 17
-25 103 -27 76 -2 96 1 115 16 l22 19 -32 393 c-36 445 -38 422 45 459 97 43
147 102 183 218 13 42 15 59 6 64 -13 9 -14 9 -81 -3z"/>
<path d="M5179 5481 c-29 -29 -39 -80 -21 -107 32 -48 112 -30 137 30 36 85
-51 142 -116 77z"/>
<path d="M4718 5151 c-24 -20 -84 -129 -74 -138 2 -3 14 12 26 34 20 36 21 36
15 8 -9 -42 -96 -272 -158 -418 -39 -93 -53 -116 -56 -97 -4 30 -19 -10 -126
-350 -101 -322 -170 -560 -190 -660 -9 -47 -27 -112 -40 -145 -56 -144 -56
-245 -2 -316 54 -69 85 -99 103 -99 9 0 46 29 81 63 68 68 75 71 42 18 -11
-18 -18 -36 -15 -39 3 -2 50 0 105 6 118 14 331 67 467 117 142 52 402 182
528 265 105 68 226 172 226 193 0 6 -16 -8 -35 -30 -45 -53 -145 -126 -269
-197 -106 -61 -268 -144 -251 -129 15 13 180 114 250 153 82 45 181 119 238
179 32 33 53 48 64 44 13 -5 14 -3 4 15 -21 39 -105 30 -476 -49 -77 -16 -149
-34 -160 -39 -16 -8 -516 -130 -531 -130 -2 0 1 11 6 25 29 76 105 431 151
698 16 99 39 202 50 229 l20 51 -28 -18 c-15 -10 -54 -38 -86 -63 -93 -71 -76
-43 29 47 52 46 100 95 106 109 24 63 87 335 98 425 15 130 8 172 -40 219 -21
21 -40 38 -42 38 -3 0 -16 -9 -30 -19z"/>
<path d="M3988 4664 c-14 -14 -13 -20 17 -63 36 -55 60 -130 52 -163 -11 -43
-59 -104 -103 -132 -24 -15 -62 -48 -84 -73 -54 -61 -55 -102 -4 -149 47 -45
91 -46 154 -4 25 16 50 30 56 30 6 0 38 17 71 39 46 29 64 48 76 80 26 65 17
131 -18 131 -11 0 -12 7 -4 32 14 52 11 131 -7 157 -12 17 -24 22 -45 19 -25
-4 -32 1 -54 38 -25 42 -59 74 -80 74 -6 0 -18 -7 -27 -16z"/>
<path d="M3413 4491 c-51 -32 -173 -207 -173 -249 0 -12 -13 -55 -30 -96 -41
-103 -168 -356 -179 -356 -5 0 -14 -12 -19 -27 -6 -16 -40 -106 -77 -202 -36
-96 -68 -197 -71 -225 -7 -75 -47 -215 -98 -346 -25 -62 -43 -116 -41 -118 3
-3 37 17 77 43 40 27 111 73 158 102 76 48 81 50 45 17 -50 -46 -287 -224
-297 -224 -4 0 -8 9 -8 20 0 11 -2 20 -5 20 -7 0 -265 -172 -332 -222 -57 -42
-70 -64 -27 -48 35 14 226 124 295 171 l56 38 -12 -62 c-23 -113 -28 -199 -13
-243 l15 -41 -253 -149 c-140 -82 -254 -152 -254 -157 0 -10 61 22 309 162
118 67 222 121 232 121 36 0 124 48 151 82 14 19 59 54 100 78 123 73 361 231
355 236 -3 3 -94 -47 -202 -111 -108 -64 -199 -115 -201 -112 -2 2 14 49 37
103 69 165 189 457 189 460 0 3 257 88 327 108 52 15 53 15 53 -7 0 -35 13
-143 25 -217 3 -19 8 -44 9 -55 2 -11 4 -20 5 -20 1 0 4 -13 6 -30 2 -16 9
-31 15 -33 5 -2 8 -7 5 -11 -2 -5 7 -18 20 -31 46 -43 155 -19 170 37 4 15 13
66 20 113 8 47 21 109 29 139 9 30 19 90 22 132 l7 77 67 16 c127 28 200 77
200 133 0 31 -42 73 -72 73 -36 0 -134 -28 -178 -50 -37 -19 -40 -19 -41 -3
-3 76 -45 279 -90 433 -17 58 -44 154 -60 213 -38 144 -76 221 -140 285 -58
57 -78 62 -126 33z m71 -736 c25 -148 43 -271 42 -272 -2 -2 -48 -12 -102 -23
-54 -10 -120 -25 -146 -33 -27 -8 -48 -14 -48 -13 0 1 43 141 95 311 52 171
95 317 96 325 2 46 23 -54 63 -295z"/>
<path d="M2495 4274 c-87 -41 -162 -79 -165 -84 -14 -23 -179 -90 -243 -99
-76 -11 -166 -56 -339 -169 -56 -38 -125 -79 -151 -92 -94 -47 -127 -112 -92
-180 31 -61 82 -64 219 -17 53 19 96 31 96 28 0 -3 -7 -42 -15 -86 -9 -44 -34
-183 -55 -309 -22 -126 -41 -230 -42 -231 -2 -1 -19 -10 -38 -20 -48 -24 -70
-45 -70 -66 0 -22 37 -49 68 -49 22 0 24 -3 18 -32 -15 -82 -37 -250 -34 -254
2 -2 54 17 114 43 l111 46 32 88 c18 49 37 86 42 83 5 -3 6 2 3 10 -4 11 6 18
38 26 90 23 117 35 281 117 415 211 628 411 669 628 9 50 8 75 -5 139 -23 111
-86 236 -143 283 -25 21 -50 37 -55 35 -5 -1 -47 7 -92 19 -54 14 -116 22
-179 23 -54 0 -98 2 -98 3 0 2 28 17 63 34 83 42 227 136 227 149 0 5 -1 10
-2 10 -2 0 -75 -34 -163 -76z m-287 -474 c4 0 57 11 117 25 105 24 215 32 250
19 42 -16 58 -110 29 -167 -57 -111 -186 -258 -307 -351 -69 -53 -234 -156
-249 -156 -4 0 -5 21 -2 47 6 53 131 657 142 688 4 13 8 -2 10 -42 2 -35 6
-63 10 -63z"/>
<path d="M5140 4122 c-134 -78 -425 -281 -416 -289 11 -12 391 204 464 264 41
33 55 63 29 63 -7 0 -41 -17 -77 -38z"/>
<path d="M6129 3715 c-111 -41 -611 -298 -739 -380 -36 -23 -131 -74 -212
-114 -113 -55 -147 -76 -150 -93 -2 -15 -36 -39 -128 -90 -133 -73 -180 -113
-180 -154 0 -14 -4 -23 -10 -19 -19 12 -10 42 27 85 63 73 -17 18 -233 -162
-88 -73 -95 -77 -123 -67 -16 6 -51 9 -77 7 -40 -2 -51 -7 -59 -27 -9 -21 -14
-23 -64 -18 -43 5 -59 2 -80 -14 -24 -17 -300 -127 -464 -184 -118 -42 -247
-130 -247 -170 0 -8 -5 -15 -12 -15 -6 0 -8 -3 -5 -6 4 -4 -7 -22 -23 -41 -35
-40 -37 -54 -10 -78 22 -20 98 -25 184 -11 l48 8 -30 -44 c-48 -70 -89 -188
-132 -381 l-17 -79 26 5 c14 3 35 8 46 11 11 4 -12 -9 -51 -28 -97 -48 -355
-145 -399 -150 -37 -5 -90 -33 -117 -63 -9 -10 -75 -47 -147 -82 -71 -36 -128
-68 -125 -73 6 -9 105 27 189 69 43 22 80 32 133 36 l73 6 -6 -32 c-11 -53
-64 -177 -100 -237 -64 -105 -233 -238 -263 -208 -6 6 -8 17 -5 24 3 8 0 14
-5 14 -6 0 -14 20 -18 45 -3 25 -11 45 -17 45 -6 0 -7 3 -4 7 4 3 2 12 -4 20
-6 7 -8 13 -3 13 5 0 4 4 -2 8 -13 9 -2 285 15 380 7 35 14 76 16 93 5 40 60
180 101 260 19 36 57 92 85 125 50 60 89 127 89 156 0 9 -8 26 -18 39 -15 17
-29 22 -63 22 -56 0 -112 -29 -169 -87 -25 -26 -53 -46 -65 -46 -12 0 -31 -10
-42 -22 -32 -36 -106 -167 -107 -191 -1 -12 -31 -112 -68 -222 -81 -240 -118
-376 -118 -429 0 -21 -10 -58 -21 -82 -20 -39 -21 -47 -9 -89 7 -25 22 -57 32
-70 11 -14 17 -29 13 -34 -3 -5 0 -13 6 -16 5 -4 8 -13 5 -20 -2 -7 -2 -16 2
-20 4 -4 8 -11 8 -16 1 -5 2 -10 4 -11 1 -2 3 -10 5 -18 24 -108 129 -215 233
-236 l33 -7 -18 31 c-10 17 -14 34 -10 38 4 4 41 -2 82 -14 41 -12 82 -22 90
-22 18 0 316 105 351 123 47 25 126 111 156 171 17 33 44 95 59 136 l29 75 -7
-75 c-13 -125 -9 -281 8 -315 26 -53 60 -44 105 27 25 39 31 64 14 53 -22 -13
-8 48 49 210 64 185 186 519 196 535 4 6 13 7 23 1 21 -11 255 -19 762 -27
496 -8 751 8 886 56 147 52 213 93 201 124 -8 20 -92 43 -195 55 -46 5 -85 11
-87 13 -2 2 9 46 26 98 64 204 125 497 135 654 3 39 8 165 12 281 l7 209 60
25 c245 101 634 270 698 303 90 47 167 113 191 162 27 57 -1 147 -68 219 -22
24 -32 27 -88 26 -35 0 -79 -6 -99 -14z m-1014 -873 c-31 -207 -86 -508 -107
-592 -19 -73 -22 -115 -22 -292 l-1 -208 -90 -1 c-49 -1 -80 -4 -67 -7 33 -10
32 -26 -3 -33 -33 -7 -801 -12 -794 -5 3 3 53 10 113 16 117 12 146 23 204 74
20 18 50 40 65 48 16 8 54 36 85 62 31 26 149 102 262 169 113 67 198 123 188
125 -17 3 -158 -61 -276 -127 -40 -23 -71 -37 -68 -32 4 5 -58 -26 -136 -70
-140 -78 -204 -106 -215 -96 -7 7 79 62 247 158 174 98 175 100 175 289 0 159
-12 197 -94 283 l-51 54 248 101 c136 55 262 104 280 107 30 6 34 12 50 68 24
86 28 42 7 -91z m-809 -463 c35 -6 68 -17 74 -24 33 -40 -12 -188 -68 -222
-88 -52 -263 -173 -297 -204 -37 -34 -46 -38 -121 -44 -69 -6 -83 -5 -98 10
-12 13 -14 21 -7 28 6 6 11 27 11 46 0 20 5 56 11 81 21 87 20 107 -7 124 -32
21 -62 13 -114 -31 -22 -19 -42 -34 -44 -32 -25 37 -37 64 -30 66 5 2 77 33
159 69 333 144 387 158 531 133z"/>
<path d="M6508 3375 c-159 -43 -524 -206 -665 -297 -100 -65 -178 -137 -158
-144 18 -7 122 1 150 12 14 6 17 4 12 -9 -12 -33 -37 -167 -47 -258 -5 -52
-10 -179 -10 -284 1 -104 0 -203 -1 -220 -1 -16 -1 -48 1 -70 2 -39 3 -38 11
15 4 30 10 105 14 165 11 197 48 575 57 575 10 0 10 -20 -2 -154 -6 -61 -19
-210 -30 -331 -11 -121 -23 -239 -26 -262 l-6 -41 128 47 c76 28 133 55 140
67 7 10 18 63 25 116 l13 97 143 71 c147 73 238 143 231 177 -2 10 -15 24 -30
32 -24 14 -33 14 -92 -2 -35 -9 -102 -33 -147 -52 -46 -19 -83 -34 -84 -32 -1
1 2 43 6 92 4 50 4 142 -1 205 -12 147 -13 140 5 140 31 0 321 101 402 140 45
22 90 51 98 63 17 26 30 127 17 127 -5 0 -58 -22 -118 -49 -129 -57 -304 -124
-311 -118 -4 5 241 111 355 153 76 28 86 38 50 48 -30 8 -29 8 -130 -19z"/>
<path d="M2748 3207 c-35 -23 -92 -55 -128 -71 -92 -42 -181 -95 -212 -129
-34 -36 -38 -92 -8 -130 34 -43 59 -41 187 9 65 26 123 52 129 58 15 15 109
306 99 306 -2 0 -32 -19 -67 -43z"/>
<path d="M3639 2639 c-197 -115 -319 -195 -319 -209 0 -6 3 -10 6 -10 20 0
419 244 474 290 62 52 18 32 -161 -71z"/>
<path d="M1735 2566 l-100 -54 -6 -58 c-17 -156 -4 -469 21 -497 14 -16 60 13
79 50 35 70 74 218 71 277 0 16 9 93 21 172 11 79 19 148 17 154 -2 5 -48 -15
-103 -44z"/>
<path d="M2067 2440 c-49 -58 -176 -496 -226 -780 -32 -181 -61 -424 -61 -511
0 -70 2 -80 17 -77 30 5 38 -86 19 -210 -18 -112 -22 -126 -37 -117 -5 4 -9
-13 -9 -37 0 -24 -5 -50 -11 -58 -7 -11 -9 15 -5 90 3 74 2 92 -4 60 -5 -25
-9 -70 -10 -100 -1 -30 -5 -64 -9 -75 -8 -19 -8 -19 -16 5 -4 14 -39 83 -78
154 -38 72 -87 173 -108 225 -45 109 -140 287 -271 505 -84 140 -113 193 -110
207 0 3 -4 6 -11 7 -7 1 -40 9 -75 19 -56 16 -65 16 -90 3 -53 -29 -79 -106
-107 -315 -56 -420 -77 -550 -91 -561 -8 -6 -14 -17 -14 -24 0 -6 -10 -63 -21
-124 l-21 -113 -99 -57 c-55 -32 -99 -62 -99 -67 0 -14 4 -12 100 36 50 25 90
42 90 38 0 -5 -7 -46 -15 -93 -22 -127 -36 -290 -29 -327 9 -49 42 -41 72 17
l23 45 -2 -90 c-2 -128 -1 -130 26 -30 48 184 215 639 245 669 l20 20 0 -25
c0 -14 -14 -74 -30 -134 -17 -59 -29 -109 -27 -112 6 -6 51 121 72 202 13 53
25 77 49 97 17 15 28 28 24 28 -4 0 -86 -43 -183 -96 -98 -52 -179 -93 -182
-90 -6 6 114 90 233 162 53 32 100 67 104 79 4 12 14 56 21 98 7 42 15 77 19
77 3 0 23 -27 45 -60 48 -72 87 -84 54 -17 -10 21 -10 21 5 3 9 -11 16 -23 16
-28 0 -4 10 -8 23 -8 21 -1 21 -1 -6 -23 l-27 -23 29 -45 c125 -199 226 -383
216 -399 -14 -23 177 -252 246 -296 90 -56 188 -20 219 81 8 24 14 119 15 242
2 111 8 235 14 275 18 120 39 366 56 658 22 370 20 357 56 376 16 8 54 36 84
62 30 26 70 59 87 74 35 28 34 44 -1 33 -11 -3 -59 -35 -106 -71 -47 -35 -85
-60 -85 -56 0 5 9 58 20 117 10 60 17 111 15 113 -2 2 -36 -15 -77 -39 -40
-23 -76 -44 -80 -46 -5 -2 -8 -2 -8 1 0 3 36 26 79 51 44 25 84 52 90 59 20
24 72 248 65 282 -17 92 -78 123 -127 64z"/>
<path d="M6690 2291 c-76 -16 -118 -34 -210 -86 -14 -8 -72 -37 -130 -65 -58
-27 -155 -78 -215 -113 l-111 -63 25 88 c13 48 22 90 19 94 -6 5 -228 -72
-262 -93 -16 -9 -20 -22 -19 -74 0 -35 2 -84 4 -108 l4 -45 -114 -72 c-66 -42
-131 -92 -154 -118 l-39 -46 59 0 c32 1 109 11 171 24 62 13 124 21 138 18 14
-3 32 2 42 11 10 9 74 33 142 53 285 82 503 174 630 266 110 79 174 146 193
203 22 64 21 79 -5 109 -31 35 -68 39 -168 17z"/>
<path d="M2932 2171 c-17 -10 -25 -81 -10 -78 28 5 64 -246 40 -276 -12 -14
-19 -138 -8 -155 16 -27 77 -8 97 30 36 66 27 345 -13 433 -6 13 -25 31 -43
40 -38 17 -45 18 -63 6z"/>
<path d="M3172 1923 c-5 -10 -15 -53 -21 -97 -13 -81 -37 -159 -65 -211 -22
-41 -21 -69 2 -60 9 4 35 14 57 22 163 57 175 64 175 92 0 73 -50 165 -79 146
-11 -6 -23 42 -16 64 3 10 -4 27 -15 39 -25 27 -27 27 -38 5z"/>
<path d="M5610 1379 c-14 -5 -30 -16 -36 -24 -6 -9 -81 -38 -165 -66 -85 -28
-172 -59 -194 -69 -22 -9 -56 -23 -75 -30 -29 -11 -102 -70 -86 -70 3 0 29 9
58 21 69 27 255 69 300 67 25 -1 68 16 153 61 66 34 123 67 127 74 5 7 -1 19
-13 30 -24 19 -33 20 -69 6z"/>
<path d="M4815 1272 c-31 -10 -43 -17 -32 -20 31 -7 12 -31 -36 -46 -21 -7
-38 -47 -42 -99 -4 -40 0 -40 43 1 14 12 32 16 32 6 0 -3 -14 -23 -32 -45 -17
-21 -42 -70 -55 -107 -12 -37 -27 -66 -33 -65 -19 5 -10 -16 16 -36 42 -33 82
-27 138 19 70 58 86 82 86 130 0 31 -6 47 -23 62 l-23 21 33 36 c27 29 33 42
29 66 -13 88 -28 100 -101 77z"/>
<path d="M4532 1187 c-7 -8 -9 -29 -5 -51 4 -24 0 -48 -10 -69 -21 -43 -41
-255 -25 -274 23 -28 54 41 65 145 3 34 10 62 14 62 5 0 9 9 9 20 0 11 -4 20
-8 20 -5 0 -4 22 2 50 15 73 -12 134 -42 97z"/>
<path d="M4280 1137 c0 -7 -9 -18 -20 -25 -12 -7 -18 -17 -15 -23 8 -12 -63
-101 -75 -94 -4 3 -11 -2 -14 -11 -5 -12 -2 -15 10 -10 15 6 16 -1 11 -60 -7
-72 -13 -86 -27 -64 -13 20 -12 4 0 -42 20 -70 114 -116 180 -88 60 25 102
158 76 244 -20 64 -38 84 -76 78 -16 -2 -30 -9 -30 -16 1 -16 25 -46 38 -46
16 0 42 -54 42 -86 0 -14 -10 -44 -22 -65 -21 -38 -38 -50 -38 -28 0 8 -5 8
-15 -1 -12 -10 -21 -10 -45 0 -24 10 -30 20 -36 57 -11 78 40 193 86 193 24 0
40 28 40 69 0 29 -3 31 -35 31 -21 0 -35 -5 -35 -13z"/>
<path d="M3969 1062 c11 -8 5 -14 -25 -30 -21 -11 -48 -29 -58 -41 -14 -15
-22 -18 -32 -10 -17 14 -28 -39 -15 -74 16 -41 71 -34 71 9 0 16 10 28 30 39
50 26 65 -1 34 -60 -9 -16 -17 -45 -19 -63 -4 -38 -61 -132 -81 -132 -17 0
-17 0 2 -38 12 -24 13 -36 4 -52 -11 -20 -10 -21 10 -10 12 6 57 22 100 34 85
25 170 70 170 89 -1 31 -18 40 -66 33 -26 -3 -50 -9 -53 -14 -4 -4 -16 -7 -28
-8 -24 -1 -23 3 14 52 13 18 25 40 28 50 2 11 11 40 21 66 15 39 16 52 5 87
-6 23 -22 47 -34 55 -25 16 -100 33 -78 18z"/>
<path d="M3638 635 c-53 -18 -147 -58 -208 -90 -61 -31 -165 -78 -231 -105
-111 -44 -118 -49 -89 -55 61 -13 555 160 602 211 13 14 33 29 46 35 27 11 25
33 -4 36 -10 0 -63 -14 -116 -32z"/>
</g>
</svg>
