<?xml version="1.0" standalone="no"?>
<!DOCTYPE svg PUBLIC "-//W3C//DTD SVG 20010904//EN"
 "http://www.w3.org/TR/2001/REC-SVG-20010904/DTD/svg10.dtd">
<svg version="1.0" xmlns="http://www.w3.org/2000/svg"
 width="300.000000pt" height="147.000000pt" viewBox="0 0 300.000000 147.000000"
 preserveAspectRatio="xMidYMid meet">
<metadata>
Created by potrace 1.16, written by Peter Selinger 2001-2019
</metadata>
<g transform="translate(0.000000,147.000000) scale(0.100000,-0.100000)"
fill="#000000" stroke="none">
<path d="M741 1454 c-174 -47 -309 -178 -367 -357 -23 -71 -27 -100 -28 -212
-1 -71 2 -145 6 -162 l7 -33 -87 0 -87 0 -93 -333 c-51 -182 -93 -338 -93
-344 1 -10 206 -13 989 -13 l989 0 48 70 49 71 40 -40 c23 -22 68 -53 101 -68
l60 -28 255 0 255 0 90 320 c50 176 95 330 99 343 l7 22 -219 0 -220 0 -16 25
c-9 13 -16 29 -16 35 0 5 108 163 241 351 132 187 243 347 246 355 4 12 -55
14 -404 14 l-410 0 -37 -55 -38 -54 -32 23 c-17 13 -56 37 -86 52 l-55 29
-570 2 c-474 2 -579 0 -624 -13z m1168 -129 c31 -15 78 -50 112 -85 l58 -60
59 83 58 82 283 3 283 2 -35 -47 c-19 -27 -116 -163 -215 -304 l-180 -256 55
-87 55 -86 174 0 c96 0 174 -3 174 -8 0 -11 -127 -452 -132 -457 -2 -2 -84 -5
-183 -6 -256 -3 -294 11 -380 143 -27 43 -53 76 -57 75 -4 -1 -42 -51 -85
-112 l-78 -110 -458 -3 c-438 -2 -457 -1 -457 16 0 18 -4 18 -62 6 -45 -10
-167 -14 -431 -14 l-369 0 7 28 c3 15 32 119 64 232 l58 205 136 3 136 3 -30
47 c-43 67 -59 133 -59 236 0 243 103 409 297 475 55 19 84 20 603 21 l545 0
54 -25z"/>
<path d="M763 1241 c-108 -37 -169 -100 -204 -210 -50 -161 -26 -326 55 -384
26 -19 48 -22 163 -28 148 -7 173 -17 173 -71 0 -21 -8 -33 -32 -48 -31 -19
-51 -20 -310 -20 l-276 0 -11 -33 c-20 -62 -61 -216 -61 -227 0 -19 599 -7
665 12 103 31 172 78 215 146 37 58 37 51 1 -70 l-29 -98 123 0 122 0 93 343
c51 188 95 350 98 360 4 15 -6 17 -116 17 l-120 0 -11 -32 c-5 -18 -33 -118
-61 -223 -28 -104 -52 -190 -53 -191 -1 -1 -2 50 -2 114 0 124 -9 156 -59 210
-43 48 -73 56 -202 57 -133 0 -154 8 -154 55 0 15 9 35 21 46 19 17 41 19 249
22 l229 3 10 32 c19 60 61 216 61 226 0 8 -85 11 -262 11 -227 -1 -270 -3
-315 -19z"/>
<path d="M1395 1248 c-8 -20 -65 -242 -65 -251 0 -4 55 -6 122 -5 l121 3 33
125 c19 69 34 128 34 133 0 4 -54 7 -120 7 -87 0 -122 -3 -125 -12z"/>
<path d="M1654 1203 c-8 -32 -24 -88 -35 -124 -10 -36 -19 -71 -19 -77 0 -7
32 -12 86 -14 l87 -3 74 -116 74 -117 -190 -268 -189 -269 141 -3 c78 -1 146
-1 153 2 6 2 59 72 118 155 58 83 108 151 110 151 2 0 43 -61 91 -135 59 -92
97 -141 119 -153 24 -13 63 -17 178 -20 135 -4 146 -2 151 15 40 134 67 233
67 242 0 7 -43 11 -134 11 l-133 0 -87 135 c-47 75 -86 138 -86 141 0 5 310
449 343 492 7 9 -23 12 -144 12 l-154 -1 -90 -130 c-49 -72 -93 -133 -97 -135
-4 -2 -23 27 -44 66 -46 89 -102 153 -157 179 -34 16 -63 21 -130 21 l-86 0
-17 -57z"/>
<path d="M1616 828 c-46 -162 -127 -471 -124 -474 4 -3 269 369 276 387 2 4
-15 37 -38 73 -36 56 -46 66 -70 66 -26 0 -30 -5 -44 -52z"/>
</g>
</svg>
